<?xml version="1.0" encoding="iso-8859-1"?><!DOCTYPE svg PUBLIC "-//W3C//DTD SVG 1.1//EN" "http://www.w3.org/Graphics/SVG/1.1/DTD/svg11.dtd"><svg viewBox="0 0 532.167 532.167" xmlns="http://www.w3.org/2000/svg" xmlns:xlink="http://www.w3.org/1999/xlink"><style>:root>svg{display:none}:root>svg:target{display:block}</style><svg viewBox="0 0 532.167 532.167" id="arrow-down" xmlns="http://www.w3.org/2000/svg"><path d="M21.19 307.825L241.369 448.5a45.846 45.846 0 0024.712 7.222 45.84 45.84 0 0024.712-7.222l220.179-140.675c21.359-13.647 27.62-42.032 13.966-63.391-13.642-21.365-42.032-27.607-63.391-13.966l-195.465 124.88L70.621 230.463c-21.353-13.642-49.744-7.394-63.391 13.966-13.654 21.364-7.399 49.743 13.96 63.396z"/><path d="M21.19 161.031l220.179 140.674a45.846 45.846 0 0024.712 7.222 45.84 45.84 0 0024.712-7.222l220.179-140.674c21.359-13.647 27.62-42.032 13.966-63.392-13.653-21.364-42.032-27.606-63.391-13.966L266.082 208.559 70.621 83.668C49.268 70.026 20.877 76.275 7.23 97.634c-13.647 21.359-7.399 49.743 13.96 63.397z"/></svg><svg viewBox="0 0 512 512" id="arrow-up" xmlns="http://www.w3.org/2000/svg"><path d="M342.092 278.119H173.946V156.78h-70.148L258.895 0l149.308 156.78h-66.111zM173.946 447.144h29.28v30.217h-29.28zM173.946 321.666h29.28v95.136h-29.28zM311.875 447.144h30.217v30.217h-30.217zM311.875 321.666h30.217v95.136h-30.217zM242.442 371.761h30.217V512h-30.217z"/></svg><svg viewBox="0 0 512 512" id="clock" xmlns="http://www.w3.org/2000/svg"><path d="M347.216 301.211l-71.387-53.54V138.609c0-10.966-8.864-19.83-19.83-19.83-10.966 0-19.83 8.864-19.83 19.83v118.978c0 6.246 2.935 12.136 7.932 15.864l79.318 59.489a19.713 19.713 0 0011.878 3.966c6.048 0 11.997-2.717 15.884-7.952 6.585-8.746 4.8-21.179-3.965-27.743z"/><path d="M256 0C114.833 0 0 114.833 0 256s114.833 256 256 256 256-114.833 256-256S397.167 0 256 0zm0 472.341c-119.275 0-216.341-97.066-216.341-216.341S136.725 39.659 256 39.659c119.295 0 216.341 97.066 216.341 216.341S375.275 472.341 256 472.341z"/></svg><svg viewBox="0 0 155.139 155.139" id="facebook" xmlns="http://www.w3.org/2000/svg"><path d="M89.584 155.139V84.378h23.742l3.562-27.585H89.584V39.184c0-7.984 2.208-13.425 13.67-13.425l14.595-.006V1.08C115.325.752 106.661 0 96.577 0 75.52 0 61.104 12.853 61.104 36.452v20.341H37.29v27.585h23.814v70.761h28.48z" fill="#010002"/></svg><svg viewBox="0 0 24 24" id="google" xmlns="http://www.w3.org/2000/svg"><path d="M21.823 9h-2.187v2.177h-2.177v2.187h2.177v2.177h2.187v-2.177H24v-2.187h-2.177zM7.5 19.5c4.328 0 7.203-3.038 7.203-7.326 0-.491-.051-.87-.122-1.248h-7.08v2.578h4.257c-.174 1.095-1.289 3.233-4.257 3.233-2.557 0-4.645-2.118-4.645-4.737s2.087-4.738 4.645-4.738c1.463 0 2.435.624 2.988 1.156l2.036-1.954C11.214 5.237 9.526 4.5 7.5 4.5 3.356 4.5 0 7.856 0 12s3.356 7.5 7.5 7.5z"/></svg><svg viewBox="0 -28 512 512" id="heart" xmlns="http://www.w3.org/2000/svg"><path d="M471.383 44.578C444.879 15.832 408.512 0 368.973 0c-29.555 0-56.621 9.344-80.45 27.77C276.5 37.07 265.605 48.45 256 61.73c-9.602-13.277-20.5-24.66-32.527-33.96C199.648 9.344 172.582 0 143.027 0c-39.539 0-75.91 15.832-102.414 44.578C14.426 72.988 0 111.801 0 153.871c0 43.3 16.137 82.938 50.781 124.742 30.992 37.395 75.535 75.356 127.117 119.313 17.614 15.012 37.579 32.027 58.309 50.152A30.023 30.023 0 00256 455.516c7.285 0 14.316-2.641 19.785-7.43 20.73-18.129 40.707-35.152 58.328-50.172 51.575-43.95 96.117-81.906 127.11-119.305C495.867 236.81 512 197.172 512 153.867c0-42.066-14.426-80.879-40.617-109.289zm0 0"/></svg><svg viewBox="0 0 512 512" id="location" xmlns="http://www.w3.org/2000/svg"><path d="M468.329 358.972c-7.263-3.989-16.382-1.336-20.369 5.924-3.989 7.261-1.337 16.381 5.924 20.369C471.752 395.081 482 405.963 482 415.121c0 11.201-15.87 28.561-60.413 43.694C377.582 473.767 318.775 482 256 482s-121.582-8.233-165.587-23.185C45.87 443.683 30 426.322 30 415.121c0-9.158 10.248-20.04 28.116-29.857 7.261-3.988 9.913-13.108 5.924-20.369-3.989-7.26-13.106-9.913-20.369-5.924C23.749 369.916 0 388.542 0 415.121c0 20.374 14.012 49.422 80.762 72.1C127.794 503.2 190.028 512 256 512s128.206-8.8 175.238-24.779c66.75-22.678 80.762-51.726 80.762-72.1 0-26.579-23.749-45.205-43.671-56.149z"/><path d="M142.752 437.13c30.45 8.602 70.669 13.34 113.248 13.34s82.798-4.737 113.248-13.34c37.253-10.523 56.142-25.757 56.142-45.275 0-19.519-18.889-34.751-56.142-45.274-8.27-2.336-17.264-4.385-26.826-6.133a2169.602 2169.602 0 01-16.323 27.708c10.584 1.588 20.521 3.535 29.545 5.834 27.416 6.983 37.432 14.844 39.491 17.866-2.06 3.023-12.074 10.884-39.49 17.866-25.949 6.609-59.335 10.379-94.498 10.716a69.731 69.731 0 01-5.147.197c-1.729 0-3.444-.071-5.148-.197-35.163-.337-68.549-4.106-94.498-10.716-27.416-6.982-37.431-14.844-39.49-17.866 2.059-3.022 12.075-10.883 39.491-17.866 9.024-2.298 18.961-4.246 29.546-5.834-5.689-9.5-11.13-18.737-16.323-27.708-9.562 1.749-18.557 3.797-26.826 6.133-37.253 10.523-56.142 25.756-56.142 45.274s18.889 34.751 56.142 45.275z"/><path d="M256 390.634c13.353 0 25.482-6.804 32.448-18.201 48.81-79.857 106.992-185.103 106.992-232.994C395.44 62.552 332.888 0 256 0S116.56 62.552 116.56 139.439c0 47.891 58.183 153.137 106.992 232.994 6.966 11.397 19.096 18.201 32.448 18.201zm-56.047-260.769c0-30.903 25.143-56.045 56.047-56.045s56.047 25.142 56.047 56.045c0 30.904-25.143 56.046-56.047 56.046s-56.047-25.141-56.047-56.046z"/></svg><svg viewBox="0 0 97.672 97.672" id="pinterest" xmlns="http://www.w3.org/2000/svg"><path d="M51.125 0C24.469 0 11.029 19.11 11.029 35.047c0 9.649 3.653 18.232 11.487 21.432 1.286.525 2.438.019 2.812-1.403.258-.985.871-3.468 1.144-4.503.376-1.407.229-1.9-.807-3.126-2.259-2.665-3.703-6.115-3.703-11.002 0-14.178 10.608-26.87 27.624-26.87 15.064 0 23.342 9.206 23.342 21.5 0 16.176-7.159 29.828-17.786 29.828-5.87 0-10.262-4.854-8.854-10.807 1.686-7.107 4.951-14.778 4.951-19.907 0-4.592-2.463-8.423-7.565-8.423-6 0-10.819 6.207-10.819 14.521 0 5.296 1.789 8.878 1.789 8.878s-6.141 26.015-7.215 30.571c-2.145 9.072-.322 20.195-.168 21.318.089.666.944.824 1.332.322.555-.723 7.7-9.544 10.129-18.359.687-2.496 3.944-15.42 3.944-15.42 1.95 3.717 7.647 6.992 13.706 6.992 18.034 0 30.271-16.441 30.271-38.45C86.644 15.498 72.547 0 51.125 0z"/></svg><svg viewBox="0 0 490.667 490.667" id="right-slider" xmlns="http://www.w3.org/2000/svg"><path d="M466.201 237.781L231.534 3.115A10.656 10.656 0 00224.003 0h-192c-4.309 0-8.213 2.603-9.856 6.592s-.725 8.555 2.304 11.627l227.136 227.115L24.451 472.448a10.643 10.643 0 00-2.304 11.627c1.664 3.989 5.547 6.592 9.856 6.592h192c2.837 0 5.547-1.131 7.552-3.115l234.667-234.667a10.68 10.68 0 00-.021-15.104z"/></svg><svg viewBox="0 0 512 512" id="share" xmlns="http://www.w3.org/2000/svg"><path d="M406 332c-29.641 0-55.761 14.581-72.167 36.755L191.99 296.124c2.355-8.027 4.01-16.346 4.01-25.124 0-11.906-2.441-23.225-6.658-33.636l148.445-89.328C354.307 167.424 378.589 180 406 180c49.629 0 90-40.371 90-90S455.629 0 406 0s-90 40.371-90 90c0 11.437 2.355 22.286 6.262 32.358l-148.887 89.59C156.869 193.136 132.937 181 106 181c-49.629 0-90 40.371-90 90s40.371 90 90 90c30.13 0 56.691-15.009 73.035-37.806l141.376 72.395C317.807 403.995 316 412.75 316 422c0 49.629 40.371 90 90 90s90-40.371 90-90-40.371-90-90-90z"/></svg><svg viewBox="0 0 512 512" id="twitter" xmlns="http://www.w3.org/2000/svg"><path d="M512 97.248c-19.04 8.352-39.328 13.888-60.48 16.576 21.76-12.992 38.368-33.408 46.176-58.016-20.288 12.096-42.688 20.64-66.56 25.408C411.872 60.704 384.416 48 354.464 48c-58.112 0-104.896 47.168-104.896 104.992 0 8.32.704 16.32 2.432 23.936-87.264-4.256-164.48-46.08-216.352-109.792-9.056 15.712-14.368 33.696-14.368 53.056 0 36.352 18.72 68.576 46.624 87.232-16.864-.32-33.408-5.216-47.424-12.928v1.152c0 51.008 36.384 93.376 84.096 103.136-8.544 2.336-17.856 3.456-27.52 3.456-6.72 0-13.504-.384-19.872-1.792 13.6 41.568 52.192 72.128 98.08 73.12-35.712 27.936-81.056 44.768-130.144 44.768-8.608 0-16.864-.384-25.12-1.44C46.496 446.88 101.6 464 161.024 464c193.152 0 298.752-160 298.752-298.688 0-4.64-.16-9.12-.384-13.568 20.832-14.784 38.336-33.248 52.608-54.496z"/></svg><svg viewBox="0 0 14 17" id="video-play" xmlns="http://www.w3.org/2000/svg"><defs><style>.lcls-1{fill:#7492ec;fill-rule:evenodd}</style></defs><path class="lcls-1" d="M0 .01L13.986 8.5 0 16.99V.01z"/></svg></svg>